<?xml version="1.0" encoding="iso-8859-1"?>
<!-- Uploaded to: SVG Repo, www.svgrepo.com, Generator: SVG Repo Mixer Tools -->
<svg fill="#000000" version="1.1" id="Layer_1" xmlns="http://www.w3.org/2000/svg" xmlns:xlink="http://www.w3.org/1999/xlink"
	 viewBox="0 0 491.5 491.5" xml:space="preserve">
<g>
	<g>
		<polygon points="134.155,254.285 56.719,254.285 56.719,285.757 165.627,285.757 		"/>
	</g>
</g>
<g>
	<g>
		<polygon points="173.491,293.622 56.719,293.622 56.719,325.179 205.048,325.179 		"/>
	</g>
</g>
<g>
	<g>
		<polygon points="252.24,372.372 56.719,372.372 56.719,403.937 283.804,403.937 		"/>
	</g>
</g>
<g>
	<g>
		<polygon points="113.231,169.114 124.625,214.065 141.404,197.288 158.182,180.511 		"/>
	</g>
</g>
<g>
	<g>
		<path d="M346.738,360.622l-21.003,21.001l-21.003,21.001l31.645,31.642c10.303-5.215,36.791-31.703,42.006-42.002L346.738,360.622
			z"/>
	</g>
</g>
<g>
	<g>
		
			<rect x="209.347" y="188.108" transform="matrix(0.7071 -0.7071 0.7071 0.7071 -149.5426 244.4163)" width="21.837" height="229.228"/>
	</g>
</g>
<g>
	<g>
		<path d="M114.84,234.97c-0.005-0.006-0.007-0.014-0.013-0.019c-0.641-0.645-1.124-1.425-1.511-2.262
			c-0.098-0.211-0.174-0.415-0.253-0.632c-0.088-0.242-0.222-0.458-0.286-0.712l-4.177-16.481H56.719v31.557h69.572L114.84,234.97z"
			/>
	</g>
</g>
<g>
	<g>
		<polygon points="291.669,411.802 56.719,411.802 56.719,443.282 323.148,443.282 		"/>
	</g>
</g>
<g>
	<g>
		<polygon points="98.632,175.526 56.719,175.526 56.719,206.999 106.608,206.999 		"/>
	</g>
</g>
<g>
	<g>
		
			<rect x="235.921" y="161.577" transform="matrix(0.7071 -0.7071 0.7071 0.7071 -122.9989 255.4363)" width="21.837" height="229.228"/>
	</g>
</g>
<g>
	<g>
		<polygon points="212.911,333.043 56.719,333.043 56.719,364.508 244.376,364.508 		"/>
	</g>
</g>
<g>
	<g>
		<polygon points="183.887,175.526 215.359,206.999 434.781,206.999 434.781,175.526 		"/>
	</g>
</g>
<g>
	<g>
		<rect x="56.719" y="96.72" width="378.06" height="31.519"/>
	</g>
</g>
<g>
	<g>
		<path d="M56.719,136.106v31.556h40.137c-0.525-4.103,0.741-8.191,3.726-11.182c3.391-3.387,8.191-4.716,12.849-3.54l22.399,5.676
			l35.69,9.047h263.261v-31.557H56.719z"/>
	</g>
</g>
<g>
	<g>
		<rect x="56.719" y="451.12" width="378.06" height="40.38"/>
	</g>
</g>
<g>
	<g>
		<polygon points="301.98,293.622 333.536,325.179 434.781,325.179 434.781,293.622 		"/>
	</g>
</g>
<g>
	<g>
		<path d="M380.734,372.372l11.261,11.259c2.408,2.408,6.586,6.702-2.448,20.306h45.232v-31.565H380.734z"/>
	</g>
</g>
<g>
	<g>
		<polygon points="341.401,333.043 352.298,343.941 372.869,364.508 434.781,364.508 434.781,333.043 		"/>
	</g>
</g>
<g>
	<g>
		<polygon points="223.224,214.863 254.78,246.42 434.781,246.42 434.781,214.863 		"/>
	</g>
</g>
<g>
	<g>
		<polygon points="262.644,254.285 294.116,285.757 434.781,285.757 434.781,254.285 		"/>
	</g>
</g>
<g>
	<g>
		<path d="M383.65,411.803L383.65,411.803c-3.428,4.162-7.734,8.912-13.276,14.453c-7.805,7.807-14.09,13.236-19.245,17.027h83.653
			v-31.48H383.65z"/>
	</g>
</g>
<g>
	<g>
		<path d="M416.66,33.906L416.66,33.906C416.426,14.847,407.278,0,395.587,0c-11.691,0-20.844,14.847-21.077,33.907h7.861
			c0.217-15.374,7.045-26.043,13.216-26.043c6.168,0,12.995,10.669,13.212,26.043h-26.428c-0.003,0.247-0.04,0.472-0.04,0.722
			c0,15.775,6.985,26.772,13.256,26.772c2.173,0,3.932,1.759,3.932,3.932c0,2.173-1.759,3.932-3.932,3.932
			c-11.843,0-21.12-15.214-21.12-34.637c0-0.248,0.041-0.476,0.043-0.722h-0.662C373.614,14.847,364.466,0,352.773,0
			c-11.691,0-20.84,14.847-21.073,33.907h7.861c0.217-15.374,7.044-26.043,13.212-26.043c6.168,0,12.995,10.669,13.212,26.043
			h-26.424c-0.003,0.247-0.04,0.472-0.04,0.722c0,15.775,6.985,26.772,13.252,26.772c2.173,0,3.932,1.759,3.932,3.932
			c0,2.173-1.759,3.932-3.932,3.932c-11.843,0-21.116-15.214-21.116-34.637c0-0.248,0.041-0.476,0.043-0.722h-0.662
			C330.806,14.847,321.657,0,309.966,0c-11.691,0-20.844,14.847-21.077,33.907h7.861c0.217-15.374,7.045-26.043,13.216-26.043
			c6.168,0,12.995,10.669,13.212,26.043H296.75c-0.003,0.247-0.04,0.472-0.04,0.722c0,15.775,6.985,26.772,13.256,26.772
			c2.173,0,3.932,1.759,3.932,3.932c0,2.173-1.759,3.932-3.932,3.932c-11.843,0-21.12-15.214-21.12-34.637
			c0-0.248,0.041-0.476,0.043-0.722h-0.662C287.994,14.847,278.845,0,267.154,0c-11.691,0-20.84,14.846-21.073,33.906h-0.662
			C245.185,14.847,236.036,0,224.346,0s-20.84,14.847-21.073,33.907h7.861c0.217-15.374,7.044-26.043,13.212-26.043
			c6.168,0,12.995,10.669,13.212,26.043h-26.424c-0.003,0.247-0.04,0.472-0.04,0.722c0,15.775,6.985,26.772,13.252,26.772
			c2.173,0,3.932,1.759,3.932,3.932c0,2.173-1.759,3.932-3.932,3.932c-11.843,0-21.116-15.214-21.116-34.637
			c0-0.248,0.041-0.476,0.043-0.722h-0.662C202.377,14.847,193.225,0,181.533,0c-11.691,0-20.84,14.847-21.073,33.907h7.861
			c0.217-15.374,7.044-26.043,13.212-26.043c6.171,0,12.999,10.669,13.216,26.043h-26.428c-0.003,0.247-0.04,0.472-0.04,0.722
			c0,15.775,6.985,26.772,13.252,26.772c2.173,0,3.932,1.759,3.932,3.932c0,2.173-1.759,3.932-3.932,3.932
			c-11.843,0-21.116-15.214-21.116-34.637c0-0.248,0.041-0.476,0.043-0.722h-0.662C159.565,14.847,150.416,0,138.725,0
			c-11.691,0-20.84,14.847-21.073,33.907h7.861c0.217-15.374,7.044-26.043,13.212-26.043c6.168,0,12.995,10.669,13.212,26.043
			h-26.424c-0.003,0.247-0.04,0.472-0.04,0.722c0,15.775,6.985,26.772,13.252,26.772c2.173,0,3.932,1.759,3.932,3.932
			c0,2.173-1.759,3.932-3.932,3.932c-11.843,0-21.116-15.214-21.116-34.637c0-0.248,0.041-0.476,0.043-0.722h-0.662
			C116.757,14.847,107.604,0,95.913,0C84.221,0,75.073,14.847,74.84,33.907h7.861c0.217-15.374,7.044-26.043,13.212-26.043
			c6.171,0,12.999,10.669,13.216,26.043H82.701c-0.003,0.247-0.04,0.472-0.04,0.722c0,15.775,6.985,26.772,13.252,26.772
			c2.173,0,3.932,1.759,3.932,3.932c0,2.173-1.759,3.932-3.932,3.932c-11.843,0-21.116-15.214-21.116-34.637
			c0-0.248,0.041-0.476,0.043-0.722H56.719v54.95h378.062v-54.95H416.66z M267.154,61.401c2.173,0,3.932,1.759,3.932,3.932
			c0,2.173-1.759,3.932-3.932,3.932c-11.843,0-21.116-15.214-21.116-34.637c0-0.248,0.041-0.475,0.043-0.721h7.861
			c0.217-15.374,7.044-26.043,13.212-26.043c6.168,0,12.995,10.669,13.212,26.043h-26.424c-0.003,0.247-0.04,0.472-0.04,0.722
			C253.902,50.404,260.887,61.401,267.154,61.401z"/>
	</g>
</g>
</svg>